<svg fill="none" height="512" viewBox="0 0 512 512" width="512" xmlns="http://www.w3.org/2000/svg" xmlns:xlink="http://www.w3.org/1999/xlink"><linearGradient id="a" gradientUnits="userSpaceOnUse" x1="124" x2="-15.3949" y1="-37" y2="446.346"><stop offset="0" stop-color="#00a672"/><stop offset="1" stop-color="#008b60"/></linearGradient><linearGradient id="b" gradientUnits="userSpaceOnUse" x1="256" x2="256" y1="428" y2="226.964"><stop offset="0" stop-color="#fff" stop-opacity=".95"/><stop offset="1" stop-color="#fff" stop-opacity=".5"/></linearGradient><rect fill="url(#a)" height="512" rx="256" width="512"/><g fill="#fff"><path d="m320.368 257.735c0-16.97 13.882-30.727 31.007-30.727h45.188c17.125 0 31.437 13.757 31.437 30.727s-14.312 30.727-31.437 30.727h-45.188c-17.125 0-31.007-13.757-31.007-30.727z"/><path d="m225.554 257.78c0-16.995 13.794-30.772 30.791-30.772s30.792 13.777 30.792 30.772-13.795 30.772-30.792 30.772-30.791-13.777-30.791-30.772z"/><path clip-rule="evenodd" d="m286.284 114.008c.687 16.561-12.182 30.544-28.746 31.232-71.502 2.969-115.153 59.003-113.028 112.209.661 16.562-11.962 30.525-28.527 31.186-16.5641.661-31.1309-12.705-31.7923-29.268-3.4624-86.703 68.9423-172.417 170.8563-174.1003 16.564-.6878 30.549 12.1801 31.237 28.7413z" fill-rule="evenodd"/></g><path clip-rule="evenodd" d="m84.0967 256.154c.4067 104.759 86.3863 173.984 173.3183 171.845 102.618-3.662 176.75-92.796 170.585-172.362-1.43-16.525-16.087-29.334-32.646-28.54-16.559.795-29.338 14.86-28.544 31.416 2.32 48.356-42.274 107.579-110.872 109.48-54.489 1.34-109.041-41.442-111.43-108.025-.638 15.436-12.807 28.04-28.525 28.667-16.5645.661-31.1312-12.705-31.7926-29.268-.0428-1.071-.074-2.142-.0937-3.213z" fill="url(#b)" fill-rule="evenodd"/></svg>